/* XPM */
static char * drracket16_xpm[] = {
"16 16 122 2",
"  	c None",
". 	c #AF9EC2",
"+ 	c #A3A7D4",
"@ 	c #4040C8",
"# 	c #1C1CB8",
"$ 	c #2424AA",
"% 	c #E61818",
"& 	c #FE0302",
"* 	c #FF0000",
"= 	c #FFB6B6",
"- 	c #F8F8F3",
"; 	c #0000D8",
"> 	c #0505C0",
", 	c #0202AB",
"' 	c #1F1F95",
") 	c #EF0E0E",
"! 	c #FF0A0A",
"~ 	c #FF0B0B",
"{ 	c #FF2E2E",
"] 	c #FFFFFF",
"^ 	c #6565EE",
"/ 	c #0606CD",
"( 	c #0404B6",
"_ 	c #0202A5",
": 	c #18188A",
"< 	c #E40D0D",
"[ 	c #FF0D0D",
"} 	c #E0E0FB",
"| 	c #0000DB",
"1 	c #0505BD",
"2 	c #0404A9",
"3 	c #010198",
"4 	c #F20808",
"5 	c #FF0E0E",
"6 	c #FF3131",
"7 	c #FEFFFF",
"8 	c #FFFFFE",
"9 	c #4141E0",
"0 	c #0606C2",
"a 	c #0404AA",
"b 	c #03039A",
"c 	c #0F0F7D",
"d 	c #FF0808",
"e 	c #FF0F0F",
"f 	c #FF0909",
"g 	c #FFB0B0",
"h 	c #FDF7F8",
"i 	c #AFAFDF",
"j 	c #0000C1",
"k 	c #04049A",
"l 	c #000083",
"m 	c #FF2B2B",
"n 	c #FFA1A1",
"o 	c #FE0909",
"p 	c #F97A7A",
"q 	c #E3E4D9",
"r 	c #1C1CBC",
"s 	c #0404A5",
"t 	c #030396",
"u 	c #000081",
"v 	c #3D3D4D",
"w 	c #F10707",
"x 	c #FE0B0B",
"y 	c #FE0D0D",
"z 	c #FFE9E9",
"A 	c #FE1B1B",
"B 	c #EC0B0B",
"C 	c #CDDBDB",
"D 	c #8484B3",
"E 	c #00009F",
"F 	c #030391",
"G 	c #00007A",
"H 	c #C30505",
"I 	c #FE5A5A",
"J 	c #FEB9B9",
"K 	c #FF0303",
"L 	c #F30808",
"M 	c #D70202",
"N 	c #BE8484",
"O 	c #B0B0A7",
"P 	c #181898",
"Q 	c #030388",
"R 	c #060667",
"S 	c #9D0505",
"T 	c #D00505",
"U 	c #F60000",
"V 	c #F9F9F9",
"W 	c #F53030",
"X 	c #E80808",
"Y 	c #D30606",
"Z 	c #BF0606",
"` 	c #AB2C2C",
" .	c #9BA0A1",
"..	c #6A6A8E",
"+.	c #1D1D4E",
"@.	c #970404",
"#.	c #B85656",
"$.	c #CDAEAE",
"%.	c #CD0000",
"&.	c #C30606",
"*.	c #B70606",
"=.	c #A90404",
"-.	c #9C0000",
";.	c #8D8989",
">.	c #84847D",
",.	c #111159",
"'.	c #845C5C",
").	c #972020",
"!.	c #9F0404",
"~.	c #A10404",
"{.	c #9A0404",
"].	c #900404",
"^.	c #840202",
"/.	c #753636",
"(.	c #543C3D",
"_.	c #641B1B",
":.	c #710C0C",
"<.	c #750202",
"[.	c #720202",
"}.	c #690303",
"|.	c #5B0C0C",
"1.	c #452525",
"                                ",
"          . + @ # $             ",
"      % & * = - ; > , '         ",
"    ) ! ~ ~ { ] ^ / ( _ :       ",
"  < ! [ [ [ * ] } | 1 2 3       ",
"  4 [ 5 5 5 6 7 8 9 0 a b c     ",
"  d [ e e f g * h i j 2 k l     ",
"  d [ 5 e m n o p q r s t u v   ",
"  w x y * z A f B C D E F G     ",
"  H o x I J K L M N O P Q R     ",
"  S T U V W X Y Z `  ...G +.    ",
"    @.#.$.%.&.*.=.-.;.>.,.      ",
"      '.).!.~.{.].^./.(.        ",
"        _.:.<.[.}.|.1.          ",
"                                ",
"                                "};
