/* XPM */
static char * drracket32_xpm[] = {
"32 32 394 2",
"  	c None",
". 	c #5050C3",
"+ 	c #6767C1",
"@ 	c #4343C2",
"# 	c #3434C2",
"$ 	c #3838BE",
"% 	c #3232B5",
"& 	c #4040AE",
"* 	c #B0B5D5",
"= 	c #B787AA",
"- 	c #EAC1BA",
"; 	c #EBEEE7",
"> 	c #E8E8DF",
", 	c #B5B5D8",
"' 	c #0B0BCF",
") 	c #0505C5",
"! 	c #0404BC",
"~ 	c #0000B3",
"{ 	c #1111A8",
"] 	c #3939A3",
"^ 	c #D72222",
"/ 	c #F11B1A",
"( 	c #FD0000",
"_ 	c #FF0101",
": 	c #FF0000",
"< 	c #FFB4B4",
"[ 	c #FDFDFD",
"} 	c #F1F1F1",
"| 	c #AAAAE5",
"1 	c #0000D9",
"2 	c #0505CD",
"3 	c #0505C1",
"4 	c #0505B6",
"5 	c #0404AC",
"6 	c #0909A1",
"7 	c #3B3B94",
"8 	c #E90B0B",
"9 	c #FF0808",
"0 	c #FF0909",
"a 	c #FFFCFC",
"b 	c #FEFEFE",
"c 	c #FCFCF4",
"d 	c #2E2EE4",
"e 	c #0606D6",
"f 	c #0505CA",
"g 	c #0606BF",
"h 	c #0404AB",
"i 	c #0101A1",
"j 	c #1E1E90",
"k 	c #F00B0B",
"l 	c #FE0A0A",
"m 	c #FF0B0B",
"n 	c #FF0A0A",
"o 	c #FF9090",
"p 	c #FEFFFF",
"q 	c #FFFFFE",
"r 	c #9999F1",
"s 	c #0303E0",
"t 	c #0606D1",
"u 	c #0606C5",
"v 	c #0505BA",
"w 	c #0404B1",
"x 	c #0505A7",
"y 	c #03039D",
"z 	c #17178C",
"A 	c #EE0808",
"B 	c #FF0C0C",
"C 	c #FF4545",
"D 	c #FFFFFF",
"E 	c #FFFFFC",
"F 	c #0808EB",
"G 	c #0707D9",
"H 	c #0606CA",
"I 	c #0606BE",
"J 	c #0505B3",
"K 	c #0505AB",
"L 	c #0404A2",
"M 	c #030398",
"N 	c #1D1D83",
"O 	c #E10F0F",
"P 	c #FF0D0D",
"Q 	c #FF1414",
"R 	c #6C6CF3",
"S 	c #0606E1",
"T 	c #0505C3",
"U 	c #0505AD",
"V 	c #0505A5",
"W 	c #04049C",
"X 	c #010190",
"Y 	c #2C2C78",
"Z 	c #FA0606",
"` 	c #FE0B0B",
" .	c #FF0E0E",
"..	c #FF0F0F",
"+.	c #E4E4F8",
"@.	c #0000E5",
"#.	c #0707D5",
"$.	c #0606C6",
"%.	c #0606B9",
"&.	c #0404AE",
"*.	c #0505A6",
"=.	c #04049E",
"-.	c #040493",
";.	c #090981",
">.	c #DE0B0B",
",.	c #FF4040",
"'.	c #FFFFFB",
").	c #5454E9",
"!.	c #0606D7",
"~.	c #0606C9",
"{.	c #0606BB",
"].	c #0404AF",
"^.	c #05059F",
"/.	c #030395",
"(.	c #030389",
"_.	c #26266F",
":.	c #EE0606",
"<.	c #FF1010",
"[.	c #FF9B9B",
"}.	c #FFEDED",
"|.	c #FFDBDB",
"1.	c #FFFEFE",
"2.	c #FCFCFC",
"3.	c #C9C9E9",
"4.	c #0505BC",
"5.	c #0505AF",
"6.	c #05059E",
"7.	c #030397",
"8.	c #04048A",
"9.	c #151575",
"0.	c #FB0707",
"a.	c #FF4B4B",
"b.	c #FF2424",
"c.	c #FBFBFB",
"d.	c #EFEFE9",
"e.	c #3636D8",
"f.	c #0606BC",
"g.	c #03038A",
"h.	c #02027B",
"i.	c #545453",
"j.	c #C41111",
"k.	c #FE0808",
"l.	c #FF8A8A",
"m.	c #FFD8D8",
"n.	c #FF0202",
"o.	c #FF0606",
"p.	c #FFA5A5",
"q.	c #FAFAFA",
"r.	c #E7E7E6",
"s.	c #9898D6",
"t.	c #0000C7",
"u.	c #0505AE",
"v.	c #0505A4",
"w.	c #05059C",
"x.	c #030396",
"y.	c #03038B",
"z.	c #01017C",
"A.	c #363657",
"B.	c #C10707",
"C.	c #FD0808",
"D.	c #FF1A1A",
"E.	c #FF5858",
"F.	c #FF2C2C",
"G.	c #F6FEFE",
"H.	c #E3E3E3",
"I.	c #D7D7D3",
"J.	c #1A1AC5",
"K.	c #0606B8",
"L.	c #0505AC",
"M.	c #0505A2",
"N.	c #04049B",
"O.	c #030394",
"P.	c #040489",
"Q.	c #01017B",
"R.	c #2F2F58",
"S.	c #BB0505",
"T.	c #F80707",
"U.	c #FFB9B9",
"V.	c #FFF1F1",
"W.	c #FF0404",
"X.	c #FE0202",
"Y.	c #EFBDBD",
"Z.	c #DEDEDE",
"`.	c #CFCFCF",
" +	c #7B7BC1",
".+	c #0202B5",
"++	c #0404A9",
"@+	c #0505A0",
"#+	c #040498",
"$+	c #040492",
"%+	c #040487",
"&+	c #010179",
"*+	c #2D2D57",
"=+	c #B30909",
"-+	c #EA0707",
";+	c #FF4A4A",
">+	c #FF8282",
",+	c #F90808",
"'+	c #E85252",
")+	c #D8DDDD",
"!+	c #CACACA",
"~+	c #C2C2BD",
"{+	c #1515B0",
"]+	c #05059D",
"^+	c #040496",
"/+	c #04048F",
"(+	c #030384",
"_+	c #010174",
":+	c #2D2D4F",
"<+	c #A80707",
"[+	c #D40606",
"}+	c #FFEAEA",
"|+	c #FF1212",
"1+	c #FD0909",
"2+	c #EF0808",
"3+	c #DF0404",
"4+	c #D1C8C8",
"5+	c #C4C4C4",
"6+	c #B7B7B7",
"7+	c #7070AB",
"8+	c #0101A2",
"9+	c #05059A",
"0+	c #030393",
"a+	c #03037F",
"b+	c #01016E",
"c+	c #414147",
"d+	c #BC0505",
"e+	c #FF7373",
"f+	c #FF9E9E",
"g+	c #FF0707",
"h+	c #FE0909",
"i+	c #F30909",
"j+	c #E40808",
"k+	c #D60505",
"l+	c #C97070",
"m+	c #BCBDBD",
"n+	c #B0B0B0",
"o+	c #AAAAA6",
"p+	c #16169E",
"q+	c #040490",
"r+	c #040486",
"s+	c #02027A",
"t+	c #0A0A60",
"u+	c #A70606",
"v+	c #CE0606",
"w+	c #F10707",
"x+	c #FE2121",
"y+	c #E60808",
"z+	c #D90707",
"A+	c #CC0606",
"B+	c #BF1B1B",
"C+	c #B4B9B9",
"D+	c #A9A9A9",
"E+	c #A1A1A0",
"F+	c #6A6A99",
"G+	c #000093",
"H+	c #020272",
"I+	c #161650",
"J+	c #B20505",
"K+	c #D10606",
"L+	c #EE0707",
"M+	c #FEB0B0",
"N+	c #FC0303",
"O+	c #F60909",
"P+	c #ED0808",
"Q+	c #E10808",
"R+	c #D60707",
"S+	c #CB0606",
"T+	c #C00606",
"U+	c #B50000",
"V+	c #AB8787",
"W+	c #A3A3A3",
"X+	c #9B9B9B",
"Y+	c #989894",
"Z+	c #18188E",
"`+	c #030383",
" @	c #020278",
".@	c #020264",
"+@	c #3B3B41",
"@@	c #9A0404",
"#@	c #B40505",
"$@	c #E10707",
"%@	c #EF1313",
"&@	c #F2F6F6",
"*@	c #F0F7F7",
"=@	c #ED3333",
"-@	c #E80808",
";@	c #DA0808",
">@	c #D10707",
",@	c #C80606",
"'@	c #BE0606",
")@	c #AC0505",
"!@	c #A33A3A",
"~@	c #9C9F9F",
"{@	c #959595",
"]@	c #90908F",
"^@	c #595985",
"/@	c #00007B",
"(@	c #02026E",
"_@	c #14144D",
":@	c #990303",
"<@	c #AF0505",
"[@	c #BF0202",
"}@	c #CF8888",
"|@	c #DBDBDB",
"1@	c #DBB4B4",
"2@	c #D80000",
"3@	c #D50707",
"4@	c #CF0707",
"5@	c #C90606",
"6@	c #C20707",
"7@	c #B90606",
"8@	c #AA0505",
"9@	c #A30404",
"0@	c #9C0505",
"a@	c #969494",
"b@	c #8F8F8F",
"c@	c #868686",
"d@	c #7F7F7C",
"e@	c #090971",
"f@	c #080857",
"g@	c #831010",
"h@	c #940303",
"i@	c #A41919",
"j@	c #B1B7B7",
"k@	c #BABFBF",
"l@	c #C34343",
"m@	c #C50606",
"n@	c #C30707",
"o@	c #BF0606",
"p@	c #AE0606",
"q@	c #A80505",
"r@	c #A10404",
"s@	c #9B0505",
"t@	c #950101",
"u@	c #8D5A5A",
"v@	c #838484",
"w@	c #7B7B7B",
"x@	c #717171",
"y@	c #2C2D5B",
"z@	c #33333C",
"A@	c #791111",
"B@	c #8B6565",
"C@	c #989B9B",
"D@	c #A09090",
"E@	c #A60303",
"F@	c #AB0505",
"G@	c #AD0505",
"H@	c #A70505",
"I@	c #960404",
"J@	c #8F0303",
"K@	c #870404",
"L@	c #802323",
"M@	c #787C7C",
"N@	c #6D6F6F",
"O@	c #594141",
"P@	c #3E3836",
"Q@	c #7E0F0F",
"R@	c #890000",
"S@	c #900404",
"T@	c #930404",
"U@	c #950404",
"V@	c #920404",
"W@	c #8F0404",
"X@	c #8A0303",
"Y@	c #850404",
"Z@	c #800303",
"`@	c #7A0303",
" #	c #720303",
".#	c #663838",
"+#	c #4C1B1B",
"@#	c #6C1717",
"##	c #760303",
"$#	c #7E0202",
"%#	c #810303",
"&#	c #830303",
"*#	c #830404",
"=#	c #820303",
"-#	c #7F0303",
";#	c #7B0303",
">#	c #760202",
",#	c #700202",
"'#	c #650101",
")#	c #530808",
"!#	c #402323",
"~#	c #5B2828",
"{#	c #651212",
"]#	c #680808",
"^#	c #680505",
"/#	c #630505",
"(#	c #600505",
"_#	c #570C0C",
":#	c #4D1616",
"<#	c #413030",
"                                                                ",
"                                                                ",
"                      . + @ # $ % &                             ",
"                  * = - ; > , ' ) ! ~ { ]                       ",
"              ^ / ( _ : < [ } | 1 2 3 4 5 6 7                   ",
"            8 9 0 0 0 0 9 a b c d e f g 4 h i j                 ",
"          k 0 l m m m n 9 o p q r s t u v w x y z               ",
"        A 0 m B B B B m m C D D E F G H I J K L M N             ",
"      O 0 B B P P P P P B Q D D D R S t T 4 U V W X Y           ",
"      Z ` B  . ... .P P B  .D D D +.@.#.$.%.&.*.=.-.;.          ",
"    >.0 B  . . ... ...P P ,.D D D '.).!.~.{.].x ^./.(._.        ",
"    :.n P  . .<..... . .n [.}.|.1.2.3.1 ~.4.5.*.6.7.8.9.        ",
"    0.m P  .....<.<. . . .D a.b.p c.d.e.~.f.5.V 6.7.g.h.i.      ",
"  j.k.m P  ...<..... .B l.m.n.o.p.q.r.s.t.{.u.v.w.x.y.z.A.      ",
"  B.C.m P  ....... ...D.D E.m n F.G.H.I.J.K.L.M.N.O.P.Q.R.      ",
"  S.T.n B P  . ... .o.U.V.W.m l X.Y.Z.`. +.+++@+#+$+%+&+*+      ",
"  =+-+0 m B P  . . .;+D >+n n n ,+'+)+!+~+{+*.]+^+/+(+_+:+      ",
"  <+[+k.` B B P P _ }+D |+m n 1+2+3+4+5+6+7+8+9+0+y.a+b+c+      ",
"    d+-+0 ` m B m e+D f+g+n h+i+j+k+l+m+n+o+p+^+q+r+s+t+        ",
"    u+v+w+0 l n 9 a D x+0 1+i+y+z+A+B+C+D+E+F+G+y.a+H+I+        ",
"      J+K+L+h+g+l.D M+N+O+P+Q+R+S+T+U+V+W+X+Y+Z+`+ @.@+@        ",
"      @@#@S+$@%@&@*@=@-@Q+;@>@,@'@#@)@!@~@{@]@^@/@(@_@          ",
"        :@<@[@}@|@1@2@3@4@5@6@7@J+8@9@0@a@b@c@d@e@f@            ",
"        g@h@i@j@k@l@m@n@o@7@#@p@q@r@s@t@u@v@w@x@y@z@            ",
"          A@B@C@D@E@F@G@G@F@H@r@0@I@J@K@L@M@N@O@P@              ",
"              Q@R@S@T@U@I@U@V@W@X@Y@Z@`@ #.#+#                  ",
"                @###$#%#&#*#=#-#;#>#,#'#)#!#                    ",
"                    ~#{#]#^#^#/#(#_#:#<#                        ",
"                                                                ",
"                                                                ",
"                                                                ",
"                                                                "};
