/* XPM */
static char *treepad32[] = {
/* columns rows colors chars-per-pixel */
"32 32 256 2 ",
"   c #001B00",
".  c #001700",
"X  c #002300",
"o  c #002A00",
"O  c #002C0B",
"+  c #003300",
"@  c #003F00",
"#  c #00291E",
"$  c #002D25",
"%  c #3A5E00",
"&  c #1A6E00",
"*  c #027C01",
"=  c #0C7D02",
"-  c #017D0B",
";  c #097606",
":  c #187704",
">  c #1E6D13",
",  c #087A18",
"<  c #136F0D",
"1  c #286902",
"2  c #277601",
"3  c #377210",
"4  c #205E2D",
"5  c #177929",
"6  c #007C37",
"7  c #0E792E",
"8  c #387827",
"9  c #297228",
"0  c #4B580C",
"q  c #4D7627",
"w  c #1A794A",
"e  c #07794F",
"r  c #23714C",
"t  c #047963",
"y  c #07777E",
"u  c #13737F",
"i  c #2C6C68",
"p  c #8A7639",
"a  c #987655",
"s  c #A37C5D",
"d  c #9B7A63",
"f  c #887B7A",
"g  c #927679",
"h  c #987C75",
"j  c #8D756A",
"k  c #A57478",
"l  c #A7706D",
"z  c #018400",
"x  c #008B00",
"c  c #078506",
"v  c #168100",
"b  c #009300",
"n  c #009C01",
"m  c #029109",
"M  c #008615",
"N  c #178113",
"B  c #368F0B",
"V  c #00A202",
"C  c #00AB0C",
"Z  c #00A419",
"A  c #1FA302",
"S  c #29A807",
"D  c #38A803",
"F  c #28B600",
"G  c #34A615",
"H  c #27A915",
"J  c #008B2C",
"K  c #008528",
"L  c #009622",
"P  c #009A2D",
"I  c #079238",
"U  c #3C9E27",
"Y  c #3D9737",
"T  c #08A62E",
"R  c #36A52C",
"E  c #4C9410",
"W  c #6B8803",
"Q  c #738410",
"!  c #48A303",
"~  c #56912B",
"^  c #00C900",
"/  c #35D91D",
"(  c #2DDE12",
")  c #1FEB1A",
"_  c #27E700",
"`  c #33E313",
"'  c #2AE415",
"]  c #1DDD3A",
"[  c #29D932",
"{  c #00F928",
"}  c #12EB32",
"|  c #25E52C",
" . c #28E234",
".. c #20F038",
"X. c #4FD213",
"o. c #40E213",
"O. c #53CE27",
"+. c #47DA26",
"@. c #58CC39",
"#. c #47D234",
"$. c #69C722",
"%. c #04874E",
"&. c #098956",
"*. c #008777",
"=. c #018B6B",
"-. c #36984B",
";. c #75834C",
":. c #778A68",
">. c #789668",
",. c #768778",
"<. c #6B896C",
"1. c #4E884D",
"2. c #35D847",
"3. c #31D64F",
"4. c #08E756",
"5. c #0DEA45",
"6. c #3FCB60",
"7. c #06EB6E",
"8. c #22E467",
"9. c #4DCF47",
"0. c #65EA69",
"q. c #4FFC65",
"w. c #878000",
"e. c #8D8237",
"r. c #FFED00",
"t. c #FFE500",
"y. c #EDFF01",
"u. c #EFFF0F",
"i. c #FFF301",
"p. c #FEFD02",
"a. c #FDFE0A",
"s. c #F1FE02",
"d. c #EEFE17",
"f. c #F9FB17",
"g. c #FFEF16",
"h. c #D7FF2B",
"j. c #CFFF3B",
"k. c #E8FF29",
"l. c #F5FC24",
"z. c #E8FD39",
"x. c #F6FC3D",
"c. c #888B55",
"v. c #8E8A45",
"b. c #878568",
"n. c #B7FF5C",
"m. c #B6FF6F",
"M. c #AEFF6B",
"N. c #C9FF4B",
"B. c #D5FF46",
"V. c #D8FD5A",
"C. c #CFFF50",
"Z. c #E6FF4F",
"A. c #C6FF67",
"S. c #CFFC6D",
"D. c #E9FE65",
"F. c #167887",
"G. c #11738A",
"H. c #2F6D83",
"J. c #0978AA",
"K. c #787C97",
"L. c #7E7C89",
"P. c #7C7CA4",
"I. c #8C7B89",
"U. c #90778E",
"Y. c #AA7088",
"T. c #8675A6",
"R. c #8B74AF",
"E. c #008484",
"W. c #009188",
"Q. c #00A793",
"!. c #0085A6",
"~. c #0083B3",
"^. c #54938A",
"/. c #4B9597",
"(. c #559697",
"). c #518A91",
"_. c #6A8A87",
"`. c #798685",
"'. c #698597",
"]. c #4896A5",
"[. c #6492A9",
"{. c #00DB82",
"}. c #11FF9B",
"|. c #04ED8B",
" X c #2BF993",
".X c #19FFAA",
"XX c #04FFB9",
"oX c #15FEA9",
"OX c #3AF3A7",
"+X c #38F2BA",
"@X c #2DF2B4",
"#X c #4BF397",
"$X c #54EF90",
"%X c #5AE2BC",
"&X c #07FFC3",
"*X c #1DF9C7",
"=X c #01FFD3",
"-X c #02FEDC",
";X c #17FAD6",
":X c #25FAC6",
">X c #38ECD3",
",X c #25F8D8",
"<X c #2BEEC8",
"1X c #3FDDE0",
"2X c #02FEE4",
"3X c #03FEEC",
"4X c #0AFDEA",
"5X c #1AF9E8",
"6X c #1DEBFC",
"7X c #14EAFA",
"8X c #02FDF3",
"9X c #00F6FF",
"0X c #02FDFE",
"qX c #0AFDFF",
"wX c #06F8F7",
"eX c #15F3FF",
"rX c #1BF3FD",
"tX c #18F9F6",
"yX c #17EBEF",
"uX c #28ECE9",
"iX c #26F4E7",
"pX c #26EAF8",
"aX c #2AF3FE",
"sX c #24F7FD",
"dX c #32EBED",
"fX c #58DBC9",
"gX c #48EAD8",
"hX c #888191",
"jX c #9BFF9F",
"kX c #A6FF8A",
"lX c #A7FFA7",
"zX c #C7FF82",
"xX c #9AD1C7",
"cX c #91E0D5",
"vX c #BCFFFF",
"bX c #FFEECB",
"nX c #FFFFC1",
"mX c #FFEDDC",
"MX c #FEF6D9",
"NX c #C4FFFE",
"BX c #CBFFFF",
"VX c #C9FFF4",
"CX c #D3FFFF",
"ZX c #D8FFFB",
"AX c #FFEAE7",
"SX c #FFF4E5",
"DX c #FFF3EB",
"FX c #FFF8EC",
"GX c #FFECF5",
"HX c #FFECFC",
"JX c #FCE9FD",
"KX c #EBFFFF",
"LX c #E6FFFF",
"PX c #FFF3F3",
"IX c #FFF2FC",
"UX c #FAFDF8",
/* pixels */
"UXPXGXHXPXSXbXbXAXJXJXJXGXDXDXDXDXSXmXAXGXIXPXIXGXGXSXMXSXDXUXUX",
"FXKXCXBXNXNXvXNXBXBXNXVXVXCXBXNXvXBXCXBXNXBXBXBXNXNXNXBXBXCXKXj ",
"FXBXdXtXrXeXtX9XtX.X X XOX>XuXrXeX6XaXsX5X;XiXyXrXrXaXpXsX1X_.k ",
"SXBXsX0X2X2X4X-XXX7.4.4.J %.,X3X=X&X&X=X8X0X9XqX0X0X0X9X9XaX(.l ",
"AXCXrX3X&X|.L n V n b M 6.@ 8.L Z n n Z 4X0X9X0X0XqX9X0X0XyX].k ",
"GXCXpX2X}.m * +./ / x ; * z c z | o.o.[ J :X,XtX0X8XwX8X0XsX].g ",
"JXCX6X2X}.] b ; 9.c x x x z X.! [ z z b | | m :X0X0X8X2X3XtX].h ",
"GXBXpX=XZ  .* 5 o M 2.b [ x : ! b x , x V _ ) L ;X8X8X0X0XyX/.l ",
"PXBXiXXXV +.2 1 , x x #.[ + @.! ( x M - x n ) b M %.tX0X9XpX^.s ",
"DXNX:X|.n 2 W ~ = c x S : < < G F +.z - , M 9.z v - @X0X9XpX^.d ",
"HXNX.X7.T 2 % o = * z S : ; R * ! O.z , X 9 1 : v * J ,X0X6X/.k ",
"HXNX.X7.x = ; , > E 2 O.z , 2 1 * * z , ~ 1 & H z z * J -XeX].l ",
"PXZX+XP } b G > ~ e.W ! * ; E W x x #.* * z b  .m + c K ;XeX/.l ",
"DXKXfXP { n : 1   q W 1 v z 1 w.#.x x S z b n ..2.; 7 @X3XaX/.s ",
"FXKXfXP { n $.2 v @.2 ! x x c 1 2 A ( b = ; m [ * , %.4X0XuX^.j ",
"UXKXfXP { ` D B b 5.n #.+.n b K 0 G | b X 9 X = c - ,X9X0XuX/.I.",
"mXBXiX*.6 #.n ^ z > - b c @.Q 0 F #.= : < z 3.z 2 U <X0X9XtX[.Y.",
"AXNXdX<XJ + X.O.U < = x b x D E < b b x c * x b z e ,X8X0XuX).Y.",
"FXBXpX5XJ : X   ~ : * b | n / x % S V ] 3.v b 4.*XyXtX3X8XdX^.a ",
"MXNXaXwX.X6 w 4 1 ! c 2.[ b b M 0 ~ #.b b n 5.XX0X0X9X0X0XtX/.d ",
"MXNX7X8X;XQ.Q.%X9.D z 3.c - -.e 8 1.X 9._ ^ 7.8X9X0X9X0X0X>X^.g ",
"AXBXiX2X5X,X5X@X8.n C 7.K w i H.I t $ I ` ..oX8XwX;X,X:X#XlX<.T.",
"HXBXiX3X4XtX4X=XXX|.}.|.+X# y G.*.yX4X{.q.0.$XOXOX$X0.m.h.x.e.P.",
"AXBXeX9X0X9X0X2X=XXX&X;X,XW.E.*.!.;X.Xq.kXzXA.m.M.n.B.p.i.a.e.T.",
"mXBXqX9X9X0X8X*XOX#X#XOXOX=.y G.~.%.n.h.k.x.l.u.u.u.a.p.p.l.v.T.",
"FXZX%X:X:X+X#XjXS.V.N.m.kX5 xXG.!.8 g.t.r.p.p.r.i.i.p.y.y.z.v.T.",
"UXMXA.j.N.N.B.k.f.a.p.s.Z.. xXH.!.5 x.i.i.i.i.p.i.r.p.y.y.x.v.P.",
"JXnXi.r.i.i.p.s.f.f.k.z.D.q xXH.~.=.o A.B.z.l.u.l.k.a.a.i.l.e.P.",
"IXnXp.r.i.p.z.B.C.zX5 &.r   cXF.J.y &.O =.9 A.C.S.m.d.p.i.f.c.T.",
"IXMXV.d.l.S.3 8 8 9 G.~.F.xXi u J.H.i G.J.G.8 3 < B D.g.l.D.;.hX",
"UX,.:.;.c.:.,.`.,._.)./.[._.`.'.'.`.hX'.[.P.,.:.>.<.b.p p c.,.I.",
"<.hXU.R.R.hXg g I.h s a j hXU.l l j :.j j h f ,.L.U.R.R.T.U.I.`."
};
