/* XPM */
static char *treepad16[] = {
/* columns rows colors chars-per-pixel */
"16 16 256 2 ",
"   c #004200",
".  c #005A21",
"X  c #006300",
"o  c #006363",
"O  c #007B00",
"+  c #008400",
"@  c #008421",
"#  c #008484",
"$  c #009C00",
"%  c #009C39",
"&  c #009C9C",
"*  c #00BD00",
"=  c #00BD21",
"-  c #00BD39",
";  c #00BD7B",
":  c #00BDBD",
">  c #00DE00",
",  c #00DE39",
"<  c #00DE7B",
"1  c #00DEBD",
"2  c #00FF7B",
"3  c #00FFBD",
"4  c cyan",
"5  c #216300",
"6  c #218400",
"7  c #218442",
"8  c #218463",
"9  c #219C00",
"0  c #21BD00",
"q  c #21BD21",
"w  c #21DE00",
"e  c #21DEBD",
"r  c #317373",
"t  c #319494",
"y  c #39BD7B",
"u  c #39FFBD",
"i  c #428400",
"p  c #429C00",
"a  c #636300",
"s  c #638400",
"d  c #63A5A5",
"f  c #7B9C21",
"g  c #7BBD42",
"h  c #7BFF7B",
"j  c gray71",
"k  c #BDBD00",
"l  c #BDFF39",
"z  c #CECECE",
"x  c #E7E7E7",
"c  c #EFEFEF",
"v  c gray97",
"b  c yellow",
"n  c gray100",
"m  c gray100",
"M  c gray100",
"N  c gray100",
"B  c gray100",
"V  c gray100",
"C  c gray100",
"Z  c gray100",
"A  c gray100",
"S  c gray100",
"D  c gray100",
"F  c gray100",
"G  c gray100",
"H  c gray100",
"J  c gray100",
"K  c gray100",
"L  c gray100",
"P  c gray100",
"I  c gray100",
"U  c gray100",
"Y  c gray100",
"T  c gray100",
"R  c gray100",
"E  c gray100",
"W  c gray100",
"Q  c gray100",
"!  c gray100",
"~  c gray100",
"^  c gray100",
"/  c gray100",
"(  c gray100",
")  c gray100",
"_  c gray100",
"`  c gray100",
"'  c gray100",
"]  c gray100",
"[  c gray100",
"{  c gray100",
"}  c gray100",
"|  c gray100",
" . c gray100",
".. c gray100",
"X. c gray100",
"o. c gray100",
"O. c gray100",
"+. c gray100",
"@. c gray100",
"#. c gray100",
"$. c gray100",
"%. c gray100",
"&. c gray100",
"*. c gray100",
"=. c gray100",
"-. c gray100",
";. c gray100",
":. c gray100",
">. c gray100",
",. c gray100",
"<. c gray100",
"1. c gray100",
"2. c gray100",
"3. c gray100",
"4. c gray100",
"5. c gray100",
"6. c gray100",
"7. c gray100",
"8. c gray100",
"9. c gray100",
"0. c gray100",
"q. c gray100",
"w. c gray100",
"e. c gray100",
"r. c gray100",
"t. c gray100",
"y. c gray100",
"u. c gray100",
"i. c gray100",
"p. c gray100",
"a. c gray100",
"s. c gray100",
"d. c gray100",
"f. c gray100",
"g. c gray100",
"h. c gray100",
"j. c gray100",
"k. c gray100",
"l. c gray100",
"z. c gray100",
"x. c gray100",
"c. c gray100",
"v. c gray100",
"b. c gray100",
"n. c gray100",
"m. c gray100",
"M. c gray100",
"N. c gray100",
"B. c gray100",
"V. c gray100",
"C. c gray100",
"Z. c gray100",
"A. c gray100",
"S. c gray100",
"D. c gray100",
"F. c gray100",
"G. c gray100",
"H. c gray100",
"J. c gray100",
"K. c gray100",
"L. c gray100",
"P. c gray100",
"I. c gray100",
"U. c gray100",
"Y. c gray100",
"T. c gray100",
"R. c gray100",
"E. c gray100",
"W. c gray100",
"Q. c gray100",
"!. c gray100",
"~. c gray100",
"^. c gray100",
"/. c gray100",
"(. c gray100",
"). c gray100",
"_. c gray100",
"`. c gray100",
"'. c gray100",
"]. c gray100",
"[. c gray100",
"{. c gray100",
"}. c gray100",
"|. c gray100",
" X c gray100",
".X c gray100",
"XX c gray100",
"oX c gray100",
"OX c gray100",
"+X c gray100",
"@X c gray100",
"#X c gray100",
"$X c gray100",
"%X c gray100",
"&X c gray100",
"*X c gray100",
"=X c gray100",
"-X c gray100",
";X c gray100",
":X c gray100",
">X c gray100",
",X c gray100",
"<X c gray100",
"1X c gray100",
"2X c gray100",
"3X c gray100",
"4X c gray100",
"5X c gray100",
"6X c gray100",
"7X c gray100",
"8X c gray100",
"9X c gray100",
"0X c gray100",
"qX c gray100",
"wX c gray100",
"eX c gray100",
"rX c gray100",
"tX c gray100",
"yX c gray100",
"uX c gray100",
"iX c gray100",
"pX c gray100",
"aX c gray100",
"sX c gray100",
"dX c gray100",
"fX c gray100",
"gX c gray100",
"hX c gray100",
"jX c gray100",
"kX c gray100",
"lX c gray100",
"zX c gray100",
"xX c gray100",
"cX c gray100",
"vX c gray100",
"bX c gray100",
"nX c gray100",
"mX c gray100",
"MX c gray100",
"NX c gray100",
"BX c gray100",
"VX c gray100",
"CX c gray100",
"ZX c gray100",
"AX c gray100",
"SX c gray100",
"DX c gray100",
"FX c gray100",
"GX c gray100",
"HX c gray100",
"JX c gray100",
"KX c gray100",
"LX c gray100",
"PX c gray100",
"IX c gray100",
"UX c gray100",
/* pixels */
"n n n n n n n n n n n n n n n c ",
"n 4 4 4 3 2 ; 4 4 4 4 4 4 4 4 j ",
"n 4 < $ * + O $ * * 1 4 4 4 4 j ",
"n 4 , + O $ $ p $ + > - 4 4 4 j ",
"n 3 $ i O 9 + p 0 + O * + 4 4 j ",
"n 2 6 X 6 9 + 6 9 + 5 6 O % 4 j ",
"n ; * 6 a s O s $ 9 + * O % 4 j ",
"n ; > p * 9 $ + i * X O + 1 4 j ",
"n 1 + 0 6 O $ s 9 O + $ 6 4 4 j ",
"n 4 %   i $ * $ i * $ , 4 4 4 j ",
"n 4 e e q = @ 8 7 . w 3 4 4 u j ",
"n 4 4 4 3 3 & # : 3 h h h l b j ",
"n 4 4 u h h y t # b b b b b b j ",
"n b b b b b f d # k b b b b b j ",
"n b b g g # r t # o # g g b b j ",
"x z z z z z z z z z z z z z z x "
};
